# xmcd
#
# Track frame offsets:
#	187
#	14837
#	30282
#	43580
#	56792
#	71480
#	85355
#	97567
#	112300
#	126680
#	140032
#	154265
#	168432
#	183025
#	197272
#	212947
#	226707
#	239542
#	254537
#	269680
#
# Disc length: 3793 seconds
#
# Revision: 1
# Processed by: cddbd v1.5.2PL0 Copyright (c) Steve Scherf et al.
# Submitted via: EasyCDDAExtractor 16.0.6.1
#
DISCID=250ecf14
DTITLE=Artistes divers - Paramount Piano Blues - Vol. 2 (1927-1932)
DYEAR=1992
DGENRE=Blues
TTITLE0=Meade Lux Lewis - Honky tonk train blues
TTITLE1=Will Ezell - Old mill blues
TTITLE2=Barrel House Weich - Larceny woman blues
TTITLE3=Will Ezell - Dying pickpocket blues
TTITLE4=Will Ezell - Playing the dozen
TTITLE5=Raymond Barrow - Walking blues
TTITLE6=James Wiggins and Blind Leroy Garnett - Weary heart blues
TTITLE7=Freddie Brown - Raised in the alley blues
TTITLE8=Freddie Brown - Whip it to a jelly
TTITLE9=Henry Brown and Ike Rodgers - Blind boy blues
TTITLE10=Charley Taylor - Louisiana bound
TTITLE11=Charley Taylor - Heavy suitcase blues
TTITLE12=Henry Brown - Eastern chimes blues
TTITLE13=Henry Brown - Deep morgan blues
TTITLE14=Louise Johnson - Long ways from home
TTITLE15=Louise Johnson - On the wall
TTITLE16=Skip James - 22-20 blues
TTITLE17=Jabo Williams - Pratt city blues
TTITLE18=Jabo Williams - Jab blues
TTITLE19=Jabo Williams - Polock blues
EXTD=
EXTT0=
EXTT1=
EXTT2=
EXTT3=
EXTT4=
EXTT5=
EXTT6=
EXTT7=
EXTT8=
EXTT9=
EXTT10=
EXTT11=
EXTT12=
EXTT13=
EXTT14=
EXTT15=
EXTT16=
EXTT17=
EXTT18=
EXTT19=
PLAYORDER=
